<?xml version="1.0" encoding="utf-8"?>
<!-- Generator: Adobe Illustrator 26.3.1, SVG Export Plug-In . SVG Version: 6.00 Build 0)  -->
<svg version="1.1" xmlns="http://www.w3.org/2000/svg" xmlns:xlink="http://www.w3.org/1999/xlink" x="0px" y="0px"
	 viewBox="0 0 25 25" style="enable-background:new 0 0 25 25;" xml:space="preserve">
<style type="text/css">
	.st0{display:none;}
</style>
<g id="Layer_1" class="st0">
	
		<image style="display:inline;overflow:visible;" width="8" height="7" xlink:href="FA1060CF.jpg"  transform="matrix(2.3948 0 0 2.3948 3 4)">
	</image>
</g>
<g id="Layer_2">
	<polygon points="3,4 7.8,4 7.8,6.4 10.2,6.4 10.2,8.8 15,8.8 15,6.4 17.4,6.4 17.4,4 22.2,4 22.2,6.4 19.8,6.4 19.8,8.8 17.4,8.8 
		17.4,11.2 15,11.2 15,13.6 17.4,13.6 17.4,16 19.8,16 19.8,18.4 22.2,18.4 22.2,20.8 17.4,20.8 17.4,18.4 15,18.4 15,16 10.2,16 
		10.2,18.4 7.8,18.4 7.8,20.8 3,20.8 3,18.4 5.4,18.4 5.4,16 7.8,16 7.8,13.6 10.2,13.6 10.2,11.2 7.8,11.2 7.8,8.8 5.4,8.8 
		5.4,6.4 3,6.4 	"/>
</g>
</svg>
